<?xml version="1.0" encoding="UTF-8"?>
<svg xmlns="http://www.w3.org/2000/svg" viewBox="50.00 80.00 490.00 360.00">
  <!-- Estado Final das Formas -->
  <!-- Formas do cenário -->
  <circle cx="200.00" cy="200.00" r="50.00" stroke="blue" fill="cyan" fill-opacity="0.6" stroke-width="1"/>
  <text x="400.00" y="200.00" font-family="sans-serif" font-weight="normal" font-size="12.00pt" text-anchor="middle" stroke="black" fill="black"><![CDATA[ AlvoEscondido ]]></text>
  <line x1="500.00" y1="100.00" x2="500.00" y2="300.00" stroke="red" stroke-width="1"/>
  <circle cx="100.00" cy="400.00" r="30.00" stroke="orange" fill="yellow" fill-opacity="0.6" stroke-width="1"/>
  <circle cx="200.00" cy="400.00" r="50.00" stroke="blue" fill="cyan" fill-opacity="0.6" stroke-width="1"/>
  <rect x="300.00" y="350.00" width="50.00" height="100.00" stroke="green" fill="lime" fill-opacity="0.6" stroke-width="1"/>
  <line x1="500.00" y1="300.00" x2="500.00" y2="500.00" stroke="red" stroke-width="1"/>
  <circle cx="100.00" cy="600.00" r="30.00" stroke="orange" fill="yellow" fill-opacity="0.6" stroke-width="1"/>

  <!-- Anteparos (segmentos bloqueantes) -->
  <line x1="300.00" y1="150.00" x2="350.00" y2="150.00" stroke="green" stroke-width="2.0"/>
  <line x1="350.00" y1="150.00" x2="350.00" y2="250.00" stroke="green" stroke-width="2.0"/>
  <line x1="350.00" y1="250.00" x2="300.00" y2="250.00" stroke="green" stroke-width="2.0"/>
  <line x1="300.00" y1="250.00" x2="300.00" y2="150.00" stroke="green" stroke-width="2.0"/>

  <!-- Poligonos de Visibilidade Acumulados -->
  <!-- Região de Visibilidade -->
  <polygon points="300.00,200.00 300.00,250.00 535.00,435.00 45.00,435.00 45.00,85.00 535.00,85.00" stroke="none" fill="#FFFF00" fill-opacity="0.30" stroke-width="2"/>
  <!-- Bomba (ponto de origem) -->
  <circle cx="50.00" cy="200.00" r="5.00" fill="#FF0000" fill-opacity="0.7" stroke="black" stroke-width="1"/>
  <line x1="47.00" y1="197.00" x2="53.00" y2="203.00" stroke="white" stroke-width="2"/>
  <line x1="47.00" y1="203.00" x2="53.00" y2="197.00" stroke="white" stroke-width="2"/>
  <!-- Região de Visibilidade -->
  <polygon points="300.00,200.00 300.00,250.00 535.00,435.00 45.00,435.00 45.00,85.00 535.00,85.00" stroke="none" fill="#FFFF00" fill-opacity="0.30" stroke-width="2"/>
  <!-- Bomba (ponto de origem) -->
  <circle cx="50.00" cy="200.00" r="5.00" fill="#FF0000" fill-opacity="0.7" stroke="black" stroke-width="1"/>
  <line x1="47.00" y1="197.00" x2="53.00" y2="203.00" stroke="white" stroke-width="2"/>
  <line x1="47.00" y1="203.00" x2="53.00" y2="197.00" stroke="white" stroke-width="2"/>
</svg>
