<?xml version="1.0" encoding="UTF-8"?>
<svg xmlns="http://www.w3.org/2000/svg" viewBox="50.00 80.00 490.00 360.00">
  <!-- Estado Final das Formas -->
  <!-- Formas do cenário -->
  <rect x="300.00" y="150.00" width="50.00" height="100.00" stroke="purple" fill="purple" fill-opacity="0.6" stroke-width="1"/>
  <text x="400.00" y="200.00" font-family="sans-serif" font-weight="normal" font-size="12.00pt" text-anchor="middle" stroke="black" fill="black"><![CDATA[ AlvoEscondido ]]></text>
  <line x1="500.00" y1="100.00" x2="500.00" y2="300.00" stroke="red" stroke-width="1"/>
  <circle cx="100.00" cy="400.00" r="30.00" stroke="purple" fill="purple" fill-opacity="0.6" stroke-width="1"/>

  <!-- Anteparos (segmentos bloqueantes) -->
  <line x1="200.00" y1="150.00" x2="200.00" y2="250.00" stroke="blue" stroke-width="2.0"/>

  <!-- Poligonos de Visibilidade Acumulados -->
  <!-- Região de Visibilidade -->
  <polygon points="200.00,200.00 200.00,250.00 45.00,435.00 45.00,85.00 395.00,85.00 200.00,150.00" stroke="none" fill="#FFFF00" fill-opacity="0.30" stroke-width="2"/>
  <!-- Bomba (ponto de origem) -->
  <circle cx="50.00" cy="200.00" r="5.00" fill="#FF0000" fill-opacity="0.7" stroke="black" stroke-width="1"/>
  <line x1="47.00" y1="197.00" x2="53.00" y2="203.00" stroke="white" stroke-width="2"/>
  <line x1="47.00" y1="203.00" x2="53.00" y2="197.00" stroke="white" stroke-width="2"/>
  <!-- Região de Visibilidade -->
  <polygon points="535.00,300.00 535.00,435.00 55.00,435.00 55.00,85.00 178.33,85.00 200.00,150.00" stroke="none" fill="#FFFF00" fill-opacity="0.30" stroke-width="2"/>
  <!-- Bomba (ponto de origem) -->
  <circle cx="250.00" cy="300.00" r="5.00" fill="#FF0000" fill-opacity="0.7" stroke="black" stroke-width="1"/>
  <line x1="247.00" y1="297.00" x2="253.00" y2="303.00" stroke="white" stroke-width="2"/>
  <line x1="247.00" y1="303.00" x2="253.00" y2="297.00" stroke="white" stroke-width="2"/>
</svg>
