<?xml version="1.0" encoding="UTF-8"?>
<svg xmlns="http://www.w3.org/2000/svg" viewBox="-20.00 -20.00 148.00 154.00">
  <!-- Estado Final das Formas -->
  <!-- Formas do cenário -->
  <rect x="68.00" y="75.00" width="14.00" height="29.00" stroke="#800080" fill="#FF00FF" fill-opacity="0.6" stroke-width="1"/>
  <line x1="59.00" y1="65.00" x2="68.00" y2="78.00" stroke="#008000" stroke-width="1"/>
  <line x1="74.50" y1="59.90" x2="75.00" y2="77.00" stroke="#008000" stroke-width="1"/>
  <line x1="90.50" y1="63.30" x2="79.70" y2="78.30" stroke="#008000" stroke-width="1"/>
  <circle cx="55.00" cy="60.00" r="5.00" stroke="#501644" fill="#d35fbc" fill-opacity="0.6" stroke-width="1"/>
  <circle cx="74.00" cy="55.00" r="5.00" stroke="#501644" fill="#d35fbc" fill-opacity="0.6" stroke-width="1"/>
  <circle cx="93.00" cy="59.00" r="5.00" stroke="#501644" fill="#d35fbc" fill-opacity="0.6" stroke-width="1"/>

  <!-- Anteparos (segmentos bloqueantes) -->
  <line x1="30.00" y1="30.00" x2="118.00" y2="30.00" stroke="black" stroke-width="2.0"/>
  <line x1="30.00" y1="124.00" x2="30.00" y2="30.00" stroke="black" stroke-width="2.0"/>

  <!-- Poligonos de Visibilidade Acumulados -->
  <!-- Região de Visibilidade -->
  <polygon points="143.00,144.00 143.00,149.00 -15.00,149.00 -15.00,115.67 30.00,124.00 118.00,124.00 118.00,30.00 110.11,-15.00 143.00,-15.00" stroke="none" fill="#FFFF00" fill-opacity="0.30" stroke-width="2"/>
  <!-- Bomba (ponto de origem) -->
  <circle cx="138.00" cy="144.00" r="5.00" fill="#FF0000" fill-opacity="0.7" stroke="black" stroke-width="1"/>
  <line x1="135.00" y1="141.00" x2="141.00" y2="147.00" stroke="white" stroke-width="2"/>
  <line x1="135.00" y1="147.00" x2="141.00" y2="141.00" stroke="white" stroke-width="2"/>
</svg>
